<svg width="65" height="66" viewBox="0 0 65 66" fill="none" xmlns="http://www.w3.org/2000/svg">
<path fill-rule="evenodd" clip-rule="evenodd" d="M32.6264 1.12701C32.6305 1.13008 64.6239 33.1239 64.627 33.127C64.6239 33.1301 32.6305 65.1239 32.6264 65.127C32.6234 65.1239 0.630022 33.1301 0.626953 33.127C0.630022 33.1239 32.6234 1.13008 32.6264 1.12701Z" fill="white"/>
<path d="M32.6265 65.127C32.6306 65.1239 64.6239 33.1301 64.627 33.127" stroke="#003D84" stroke-linejoin="round"/>
<path d="M64.627 33.127C64.6239 33.1239 32.6306 1.13008 32.6265 1.12701" stroke="#003D84" stroke-linejoin="round"/>
<path fill-rule="evenodd" clip-rule="evenodd" d="M34.9789 41.5476C34.9789 41.5507 32.6264 65.127 32.6264 65.127C32.6305 65.1239 64.6239 33.1301 64.6269 33.127C64.6239 33.1239 32.6305 1.13008 32.6264 1.12701C30.8519 10.5142 27.3027 29.2885 27.3027 29.2885L34.9789 41.5476Z" fill="#003D84"/>
<path d="M34.9789 41.5477C34.9789 41.5507 32.6265 65.127 32.6265 65.127" stroke="#222222" stroke-linejoin="round"/>
<path d="M32.6264 65.127C32.6234 65.1239 0.630022 33.1301 0.626953 33.127" stroke="#222222" stroke-linejoin="round"/>
<path d="M0.626953 33.127C0.630022 33.1239 32.6234 1.13008 32.6264 1.12701" stroke="#222222" stroke-linejoin="round"/>
<path d="M32.6264 1.12701C30.8519 10.5142 27.3027 29.2885 27.3027 29.2885" stroke="#222222" stroke-linejoin="round"/>
<path d="M27.3027 29.2885L34.9789 41.5477" stroke="#222222" stroke-linejoin="round"/>
<path fill-rule="evenodd" clip-rule="evenodd" d="M34.9789 41.5476C34.9789 41.5507 32.6264 65.127 32.6264 65.127C32.6234 65.1239 0.630022 33.1301 0.626953 33.127C0.630022 33.1239 32.6234 1.13008 32.6264 1.12701C30.8519 10.5142 27.3027 29.2885 27.3027 29.2885L34.9789 41.5476Z" fill="#222222"/>
<path fill-rule="evenodd" clip-rule="evenodd" d="M15.9476 26.9576L29.1367 26.9688L29.1347 31.9652H27.7324C27.7324 31.9652 27.5524 30.0188 27.039 29.4143C26.6268 28.9305 25.7604 28.5531 25.1263 28.4989C24.0227 28.4038 21.5567 28.4519 21.5567 28.4519L21.5434 32.6617C21.5434 32.6617 23.1594 32.8008 23.6228 32.3753C24.0309 31.9999 24.0585 30.5793 24.0585 30.5793L25.4894 30.5527V36.4716L24.0841 36.4992C24.0841 36.4992 24.0483 34.9169 23.5921 34.4996C23.1226 34.069 21.4913 34.1856 21.4913 34.1856L21.5322 39.048C21.5322 39.048 25.7748 39.2986 26.9479 38.1418C27.623 37.478 27.7324 35.0847 27.7324 35.0847L29.1142 35.0632L29.1674 40.44L15.9067 40.4461L15.9108 38.87C15.9108 38.87 17.5197 38.9488 17.9227 38.7565C18.0546 38.6941 18.07 38.2921 18.07 38.2921L18.1037 29.2415C18.1037 29.2415 18.0025 28.6851 17.8061 28.6278C17.263 28.4723 15.9405 28.5419 15.9405 28.5419L15.9476 26.9576Z" fill="#00A9EC"/>
<path fill-rule="evenodd" clip-rule="evenodd" d="M46.7627 28.3936L46.7801 26.9688L40.2291 26.9658L40.2444 28.4989L41.9709 28.5081C41.9811 28.5163 41.8553 29.3611 41.8553 29.3611L36.7945 33.8583L36.8067 29.2251L37.2292 28.5357L38.4299 28.547L38.4596 26.9637L31.1997 26.9576L31.1926 28.5419L33.0582 28.5368L33.3558 29.2415L33.322 38.2921L33.1748 38.8444L31.1629 38.87L31.1588 40.4461L38.3256 40.4431L38.2673 39.0643L37.1115 39.048L36.7771 38.4732L36.7433 35.8518L39.0477 33.9248L41.8471 38.197L41.481 38.868L40.0685 38.8761L40.1032 40.442L47.2322 40.44L47.2077 38.8813L45.8136 38.8874L41.5147 31.732L45.3779 28.4232L46.7627 28.3936Z" fill="#929292"/>
</svg>
